<svg width="1600" height="1590" viewBox="0 0 1600 1590" fill="none" xmlns="http://www.w3.org/2000/svg">
<path fill-rule="evenodd" clip-rule="evenodd" d="M793.892 5.75C790.832 8.912 773.215 26.571 754.743 44.991L721.158 78.482L706.392 63.741C698.271 55.633 691.175 49 690.624 49C690.072 49 684.019 54.616 677.172 61.479L664.723 73.958L680.187 89.071L695.651 104.183L440.387 358.841C299.991 498.904 185.129 613.957 185.137 614.516C185.157 615.982 208.446 639 209.909 639C210.84 639 519.45 331.699 658.574 192.238L676.792 173.976L735.951 232.768L795.111 291.56L776.63 310.02L758.15 328.481L737.653 308.002L717.157 287.524L704.654 299.997C697.777 306.857 692.151 312.938 692.151 313.51C692.151 314.082 695.56 317.914 699.726 322.025C703.892 326.136 712.747 335.268 719.402 342.317L731.504 355.133L716.378 370.167C708.058 378.435 700.809 385.043 700.267 384.85C699.725 384.658 690.475 375.838 679.711 365.25C668.947 354.663 659.798 346 659.38 346C658.963 346 653.024 351.611 646.182 358.469L633.744 370.937L636.197 373.578C637.547 375.031 646.301 384.088 655.651 393.706C665.001 403.323 672.78 411.536 672.938 411.957C673.209 412.679 644.879 441.219 643.363 441.75C642.97 441.888 633.685 433.002 622.73 422.004C611.774 411.006 602.692 402.118 602.547 402.254C600.083 404.555 581.856 422.63 579.688 424.923L576.724 428.055L596.935 448.284L617.146 468.513L574.188 511.463C550.561 535.085 531.017 554.207 530.756 553.956C530.495 553.705 508.181 531.473 481.17 504.551L432.058 455.603L419.028 468.633L405.997 481.663L466.6 542.082C499.932 575.312 527.587 602.5 528.055 602.5C528.946 602.5 842.123 290.886 842.141 289.983C842.146 289.699 810.876 258.203 772.651 219.993C734.426 181.783 703.151 149.986 703.151 149.333C703.151 148.681 707.207 144.024 712.165 138.985L721.18 129.824L767.699 176.162C793.285 201.648 814.542 222.613 814.937 222.751C815.333 222.889 839.423 199.231 868.472 170.179L921.288 117.356L883.691 79.928C863.013 59.343 845.74 42.377 845.306 42.228C844.872 42.078 838.824 47.636 831.867 54.579L819.216 67.202L845.863 93.664L872.511 120.126L845.588 147.063C830.78 161.878 818.398 174 818.071 174C817.745 174 801.622 158.348 782.242 139.217L747.007 104.434L786.829 64.744L826.651 25.054L814.166 12.527C807.299 5.637 801.18 0 800.568 0C799.956 0 796.952 2.588 793.892 5.75ZM925.506 150.517L911.91 164.035L916.377 168.767C927.144 180.174 939.46 192.063 940.232 191.793C941.206 191.453 968.151 164.875 968.151 164.254C968.151 163.251 941.273 137 940.246 137C939.616 137 932.984 143.083 925.506 150.517ZM886.274 189.547C878.917 196.99 873.067 203.259 873.274 203.477C880.171 210.759 900.598 231 901.05 231C901.395 231 907.972 224.686 915.664 216.969L929.651 202.938L915.987 189.469C908.472 182.061 901.722 176.003 900.987 176.007C900.252 176.011 893.631 182.104 886.274 189.547ZM970.855 189.708C959.584 200.922 958.314 202.523 959.583 203.923C962.764 207.434 1252.19 496.495 1335.16 579.021C1384.11 627.707 1424.15 667.934 1424.15 668.414C1424.15 668.893 1397.76 695.567 1365.51 727.688L1306.87 786.09L1289.01 768.331C1279.19 758.564 1271.15 750.11 1271.15 749.545C1271.15 748.98 1280.15 739.509 1291.15 728.497L1311.16 708.477L1298.23 695.578L1285.3 682.68L1266.27 700.969C1255.8 711.028 1246.26 719.934 1245.08 720.76C1243.02 722.202 1242.34 721.665 1228.04 707.391C1219.85 699.211 1213.26 692.227 1213.4 691.87C1213.54 691.513 1222.2 682.352 1232.65 671.511C1243.1 660.67 1251.76 651.508 1251.89 651.15C1252.03 650.793 1246.6 644.735 1239.82 637.689L1227.51 624.878L1207.21 644.689C1196.04 655.585 1186.62 664.614 1186.27 664.753C1185.92 664.892 1178.89 658.254 1170.65 650.001L1155.67 634.997L1176 614.651L1196.33 594.305L1183.72 581.902C1176.78 575.081 1170.78 569.386 1170.37 569.248C1169.97 569.109 1160.87 577.771 1150.15 588.498C1139.44 599.224 1130.21 608 1129.66 608C1129.1 608 1109.52 588.875 1086.15 565.5L1043.66 522.999L1093.15 473.5L1142.64 424.001L1129.63 410.985L1116.61 397.968L1055.42 458.869L994.234 519.769L1151.18 676.385C1237.5 762.523 1308.47 833 1308.89 833C1309.31 833 1340.48 802.148 1378.15 764.439C1415.83 726.73 1447.5 695.409 1448.53 694.836C1450.13 693.945 1451.69 695.078 1459.28 702.626C1464.16 707.484 1468.15 711.919 1468.15 712.481C1468.15 713.043 1447.45 734.182 1422.15 759.457C1396.85 784.731 1376.15 805.656 1376.15 805.958C1376.15 806.26 1399.9 830.257 1428.94 859.285L1481.72 912.062L1519.17 874.592C1539.76 853.984 1556.74 836.727 1556.9 836.244C1557.19 835.393 1533.93 811.801 1532.22 811.204C1531.75 811.041 1519.61 822.72 1505.22 837.157L1479.07 863.407L1452.11 836.461C1437.28 821.64 1425.15 809.215 1425.15 808.85C1425.15 808.485 1440.84 792.448 1460.02 773.212L1494.9 738.238L1534.27 777.619C1555.92 799.278 1574.02 817 1574.48 817C1574.94 817 1580.83 811.372 1587.56 804.492L1599.81 791.985L1560.5 752.742C1538.88 731.159 1521.19 713.05 1521.19 712.5C1521.18 711.95 1527.7 705.017 1535.67 697.092C1543.63 689.168 1550.15 682.258 1550.15 681.735C1550.15 680.55 1534 663.925 1528.81 659.769L1524.98 656.696L1509.81 671.833L1494.65 686.971L1401.65 593.948C1334.46 526.742 986.195 179.474 983.791 177.286C983.662 177.168 977.84 182.758 970.855 189.708ZM847.665 228.022L833.703 242.043L847.927 256.267L862.151 270.491L876.392 256.25L890.633 242.009L876.656 228.005C868.968 220.302 862.441 214 862.153 214C861.864 214 855.344 220.31 847.665 228.022ZM878.199 281.733L816.945 342.52L892.109 417.51C933.45 458.754 967.428 492.644 967.616 492.82C968.195 493.362 1089.15 372.642 1089.15 371.522C1089.15 370.194 1064.97 346 1063.64 346C1063.1 346 1040.49 368.161 1013.4 395.247L964.148 444.495L915.009 395.355L865.869 346.215L915.754 296.653L965.64 247.09L952.547 234.018L939.453 220.946L878.199 281.733ZM986.888 295.763C979.333 303.332 973.166 309.97 973.183 310.513C973.226 311.806 999.464 338 1000.72 338C1001.25 338 1007.86 331.807 1015.41 324.237L1029.15 310.474L1014.89 296.237L1000.62 281.999L986.888 295.763ZM531.352 356.298L517.15 370.526L531.151 384.5L545.151 398.473L559.151 384.5C566.851 376.815 573.151 370.255 573.151 369.923C573.151 369.486 547.952 344.004 545.821 342.285C545.675 342.167 539.164 348.473 531.352 356.298ZM492.873 394.777C485.326 402.339 479.151 408.97 479.151 409.513C479.151 410.056 485.24 416.555 492.681 423.957L506.211 437.413L520.181 423.47C527.865 415.801 534.151 409.164 534.151 408.722C534.151 408.022 522.783 396.505 510.503 384.764L506.596 381.028L492.873 394.777ZM1174.52 484.578L1160.93 498.155L1163.79 501.16C1170.73 508.449 1188.34 525.531 1189.23 525.843C1190.22 526.189 1217.13 500.107 1217.15 498.791C1217.15 497.779 1190.01 471 1188.97 471C1188.5 471 1182 477.11 1174.52 484.578ZM366.354 521.296L353.137 534.541L402.644 583.963C429.873 611.144 452.151 633.476 452.151 633.588C452.151 634.014 355.011 730.512 354.34 730.753C353.952 730.891 331.474 708.881 304.388 681.841L255.14 632.676L242.395 645.088C235.386 651.915 229.519 657.992 229.358 658.593C229.197 659.195 256.363 686.732 289.728 719.788C347.883 777.406 350.478 779.829 352.521 778.438C353.692 777.639 387.726 743.916 428.151 703.497L501.651 630.008L440.612 569.03L379.572 508.051L366.354 521.296ZM1213.15 523.5L1199.68 537L1213.66 551.004C1221.34 558.705 1227.99 564.887 1228.43 564.742C1229.41 564.414 1256.15 537.928 1256.15 537.281C1256.15 536.129 1229.15 510 1227.96 510C1227.22 510 1220.56 516.075 1213.15 523.5ZM303.869 583.111C296.289 590.798 290.316 597.457 290.595 597.91C291.449 599.292 317.056 624.468 317.891 624.747C318.32 624.89 324.961 618.705 332.648 611.003L346.624 597L332.651 583C324.966 575.3 318.447 569.03 318.164 569.067C317.882 569.105 311.449 575.424 303.869 583.111ZM151.764 646.587C144.277 654.196 138.151 660.699 138.151 661.037C138.151 661.626 159.698 683.633 163.82 687.254C165.766 688.963 166.162 688.661 179.484 675.285C187.001 667.738 193.151 661.318 193.151 661.018C193.151 660.718 186.902 654.236 179.264 646.613L165.377 632.752L151.764 646.587ZM190.319 685.533C182.987 692.945 177.137 699.429 177.319 699.943C177.648 700.867 188.942 712.557 199.402 722.8L204.814 728.099L218.498 714.344C226.023 706.779 232.062 700.25 231.916 699.835C231.525 698.72 204.92 671.995 204.236 672.029C203.914 672.044 197.652 678.121 190.319 685.533ZM80.118 718.095L42.584 756.058L54.949 768.585C61.75 775.475 67.76 780.964 68.306 780.782C68.851 780.6 80.987 768.786 95.276 754.529L121.254 728.608L148.45 755.804L175.647 783.001L140.4 818.247L105.154 853.493L65.898 814.247C44.307 792.661 26.187 775 25.631 775C25.076 775 19.081 780.553 12.311 787.34L0 799.68L39.576 839.026C61.342 860.666 79.151 878.853 79.151 879.441C79.151 880.029 72.393 887.218 64.134 895.417L49.117 910.324L61.384 922.646C68.131 929.423 74.101 934.961 74.651 934.952C75.201 934.944 82.387 928.198 90.619 919.961L105.588 904.985L232.119 1031.24C301.712 1100.68 416.701 1215.43 487.651 1286.24L616.651 1414.99L629.445 1402.2L642.239 1389.4L636.895 1383.95C633.955 1380.95 529.086 1276.29 403.851 1151.37C278.616 1026.45 176.151 923.846 176.151 923.366C176.151 922.886 202.426 896.221 234.541 864.11L292.931 805.727L311.041 823.612C321.001 833.449 329.147 841.948 329.143 842.499C329.139 843.049 320.123 852.482 309.107 863.46L289.079 883.419L302.036 896.376L314.993 909.332L324.822 899.854C330.228 894.64 339.293 885.903 344.966 880.437C350.64 874.972 355.712 870.347 356.237 870.16C356.763 869.973 364.037 876.615 372.401 884.922L387.609 900.024L367.142 920.509L346.675 940.994L359.163 953.519C366.031 960.407 372.173 965.921 372.811 965.772C373.449 965.622 382.832 956.95 393.663 946.5C404.494 936.05 413.651 927.386 414.013 927.247C414.374 927.108 421.37 933.705 429.559 941.908L444.449 956.822L424.3 976.73C413.218 987.68 404.151 997.065 404.151 997.586C404.151 998.473 422.89 1017.3 427.946 1021.49L430.241 1023.39L450.453 1003.2L470.664 983.005L513.619 1025.97L556.573 1068.93L507.612 1117.97C480.684 1144.95 458.597 1167.58 458.53 1168.26C458.464 1168.94 464.099 1175 471.052 1181.73L483.695 1193.96L544.673 1132.94L605.651 1071.93L448.976 915.464C362.804 829.409 291.87 759 291.345 759C290.471 759 242.338 806.434 176.407 872.268L150.164 898.473L140.649 888.998L131.135 879.524L177.852 832.799L224.569 786.074L222.11 783.392C216.368 777.131 118.689 680.006 118.194 680.067C117.895 680.103 100.761 697.216 80.118 718.095ZM229.387 724.263C222.107 731.558 216.151 737.977 216.151 738.527C216.151 739.077 222.344 745.708 229.914 753.264L243.677 767L257.614 753.037L271.55 739.074L264.943 732.23C256.509 723.494 243.632 711 243.061 711C242.82 711 236.667 716.969 229.387 724.263ZM1176.38 884.271L1101.11 959.542L1162.35 1020.29L1223.59 1081.05L1236.62 1068.02L1249.64 1055L1200.4 1005.75C1173.31 978.656 1151.15 956.177 1151.15 955.792C1151.15 955.31 1237.58 868.758 1248.68 858.126C1248.89 857.92 1271.2 879.858 1298.26 906.876C1325.32 933.894 1347.76 956 1348.13 956C1349.37 956 1373.15 931.956 1373.15 930.711C1373.15 929.587 1253.26 809 1252.15 809C1251.87 809 1217.78 842.872 1176.38 884.271ZM1342.76 838.587C1335.22 846.06 1329.18 852.571 1329.35 853.056C1329.7 854.067 1342.96 867.77 1351.24 875.665L1356.83 880.997L1370.49 867.71C1378 860.403 1384.15 853.964 1384.15 853.402C1384.15 852.678 1362.12 830.036 1356.77 825.25C1356.61 825.113 1350.31 831.115 1342.76 838.587ZM1381.27 877.422C1373.91 884.738 1368.06 891.23 1368.27 891.849C1368.48 892.468 1374.73 899.168 1382.15 906.737L1395.65 920.5L1409.4 906.84C1416.96 899.327 1423.15 892.743 1423.15 892.208C1423.15 891.193 1396.78 864.663 1395.42 864.317C1395 864.209 1388.63 870.106 1381.27 877.422ZM1420.39 916.263C1413.11 923.558 1407.15 930.019 1407.15 930.621C1407.15 932.296 1433.01 957.5 1434.72 957.5C1436.22 957.5 1462.15 932.347 1462.15 930.899C1462.15 930.04 1435.05 903 1434.19 903C1433.88 903 1427.67 908.969 1420.39 916.263ZM1338.94 1003.26C1309.4 1032.54 1204.67 1136.93 1106.21 1235.24C1007.76 1333.55 926.775 1414.1 926.259 1414.24C925.742 1414.38 898.931 1388.21 866.679 1356.08L808.039 1297.66L825.845 1279.83C835.638 1270.03 844.105 1262 844.661 1262C845.216 1262 854.437 1270.77 865.151 1281.5C875.865 1292.23 885.086 1300.99 885.641 1300.98C886.197 1300.97 892.274 1295.36 899.147 1288.5L911.643 1276.05L905.115 1269.27C901.525 1265.55 892.991 1256.76 886.15 1249.73C879.31 1242.71 873.312 1236.25 872.821 1235.38C872.121 1234.12 875.187 1230.53 887.067 1218.69L902.205 1203.6L909.928 1211.2C914.176 1215.37 923.477 1224.48 930.599 1231.43L943.546 1244.08L955.849 1231.8C962.615 1225.05 968.142 1219.07 968.13 1218.52C968.104 1217.27 961.234 1209.88 942.784 1191.25L928.671 1176.99L944.161 1162.09L959.651 1147.19L979.44 1166.84C990.323 1177.65 999.451 1186.7 999.724 1186.95C1000.39 1187.56 1025.15 1162.8 1025.15 1161.52C1025.15 1160.97 1016.28 1151.64 1005.43 1140.78L985.715 1121.05L989.183 1117.43C996.783 1109.51 1070.69 1035.98 1071.29 1035.75C1071.64 1035.61 1093.28 1056.65 1119.37 1082.5C1145.47 1108.35 1167.81 1130.37 1169.03 1131.44L1171.23 1133.39L1183.71 1120.94C1190.58 1114.1 1196.06 1108.05 1195.9 1107.5C1195.74 1106.95 1168.37 1079.38 1135.09 1046.22L1074.58 985.949L917.293 1142.72L760.008 1299.5L830.08 1369.49C868.619 1407.99 900.151 1439.76 900.151 1440.11C900.151 1440.45 896.032 1444.85 890.999 1449.88C882.814 1458.07 881.678 1458.88 880.249 1457.57C879.37 1456.77 858.236 1435.72 833.285 1410.81L787.919 1365.5L738.355 1415C711.095 1442.23 687.218 1466.22 685.294 1468.32L681.796 1472.14L719.219 1509.57C739.801 1530.15 757.137 1547 757.743 1547C758.547 1547 778.008 1528.15 783.106 1522.43C783.356 1522.15 771.658 1510.01 757.11 1495.46L730.66 1468.99L757.894 1441.76L785.127 1414.53L820.389 1449.76L855.651 1484.99L815.896 1524.75L776.141 1564.52L788.91 1577.26L801.678 1590L841.401 1550.28L881.124 1510.56L896.667 1525.98L912.21 1541.41L924.681 1528.97C931.539 1522.13 937.151 1516.07 937.151 1515.5C937.151 1514.94 930.626 1507.96 922.651 1500C914.676 1492.04 908.151 1485.23 908.151 1484.87C908.151 1484.18 1095.63 1296.81 1297.46 1095.8L1418.65 975.091L1406.17 962.545C1399.3 955.645 1393.45 950.004 1393.17 950.01C1392.88 950.015 1368.48 973.978 1338.94 1003.26ZM1270.89 977.763C1263.33 985.332 1257.15 991.796 1257.15 992.126C1257.15 992.776 1283.95 1020 1284.59 1020C1285.27 1020 1312.15 992.801 1312.15 992.121C1312.15 991.765 1305.96 985.292 1298.39 977.736L1284.62 964L1270.89 977.763ZM357.415 1040.65C344.366 1053.97 344.204 1054.19 345.915 1056.33C346.87 1057.52 353.171 1063.89 359.917 1070.47L372.182 1082.44L386.167 1068.48L400.151 1054.53L386.415 1040.76C378.859 1033.19 372.222 1027.03 371.664 1027.07C371.107 1027.11 364.695 1033.22 357.415 1040.65ZM396.669 1078.98L382.712 1092.96L396.182 1106.73C403.59 1114.31 410.192 1120.5 410.853 1120.5C411.909 1120.5 424.534 1108.57 435.387 1097.32L439.122 1093.44L424.874 1079.22L410.625 1065L396.669 1078.98ZM571.398 1159.25C538.262 1192.39 511.151 1219.96 511.151 1220.52C511.151 1221.8 535.908 1246.56 536.577 1245.95C536.849 1245.7 559.039 1223.56 585.888 1196.75C612.737 1169.94 635.144 1148 635.681 1148C636.219 1148 658.602 1169.95 685.422 1196.77L734.185 1245.54L684.418 1295.27L634.651 1345L647.651 1357.97L660.651 1370.94L721.401 1310.22C754.814 1276.83 782.151 1249.13 782.151 1248.67C782.151 1247.8 633.044 1099.04 632.148 1099.02C631.871 1099.01 604.534 1126.11 571.398 1159.25ZM1082.38 1166.15C1074.56 1173.95 1068.22 1180.59 1068.3 1180.92C1068.37 1181.24 1074.68 1187.57 1082.31 1194.98L1096.19 1208.46L1110.41 1194.23L1124.64 1180L1110.63 1165.99L1096.62 1151.97L1082.38 1166.15ZM1042.73 1205.2L1028.81 1219.15L1042.98 1233.32L1057.15 1247.49L1071.39 1233.25L1085.63 1219.01L1071.66 1205.01C1063.97 1197.3 1057.45 1191.06 1057.16 1191.13C1056.88 1191.2 1050.39 1197.53 1042.73 1205.2ZM585.11 1267.43L571.079 1281.4L585.352 1295.7L599.625 1310L613.388 1296.26C620.958 1288.71 627.151 1282.24 627.151 1281.88C627.151 1281.53 620.849 1274.99 613.146 1267.34L599.142 1253.45L585.11 1267.43ZM726.867 1332.78C719.323 1340.34 713.151 1346.99 713.151 1347.55C713.151 1348.64 739.351 1375 740.434 1375C741.414 1375 768.151 1348.23 768.151 1347.25C768.151 1346.5 751.533 1329.33 743.489 1321.77L740.584 1319.04L726.867 1332.78ZM687.713 1371.94C675.004 1384.67 673.925 1386.03 675.227 1387.67C676.01 1388.66 682.22 1395.01 689.027 1401.79L701.403 1414.11L703.925 1411.81C705.313 1410.54 711.744 1404.17 718.217 1397.67L729.985 1385.83L715.852 1371.92C708.079 1364.26 701.698 1358 701.672 1358C701.646 1358 695.364 1364.27 687.713 1371.94ZM648.092 1411.15L634.533 1425L648.592 1438.99L662.651 1452.97L676.799 1438.85L690.947 1424.73L677.121 1410.86C669.517 1403.24 662.926 1397.07 662.474 1397.15C662.021 1397.23 655.55 1403.53 648.092 1411.15Z" fill="#71747B"/>
<path fill-rule="evenodd" clip-rule="evenodd" d="M736.013 480.209C699.996 516.096 670.183 545.345 669.763 545.208C669.343 545.07 669.112 545.325 669.25 545.774C669.614 546.962 654.683 561.511 653.5 561.121C652.95 560.94 652.785 561.077 653.134 561.426C653.748 562.04 421.841 794.119 419.942 794.791C419.424 794.975 419 795.681 419 796.361C419 797.696 796.572 1174.46 797.91 1174.46C798.355 1174.46 884.818 1088.58 990.05 983.62L1181.38 792.782L991.94 603.911C887.748 500.032 802.275 415.022 802 415C801.725 414.977 772.031 444.321 736.013 480.209ZM895 568.199C895 568.625 886.433 577.389 875.963 587.677L856.926 606.381L967.605 717.063L1078.28 827.744L1064 841.851C1056.15 849.61 1049.45 855.949 1049.11 855.939C1048.77 855.928 991.827 799.491 922.56 730.523L796.62 605.126L817.31 584.395C828.69 572.993 838 563.375 838 563.023C838 562.67 825.85 550.258 811 535.44C796.15 520.621 784 508.2 784 507.837C784 507.473 789.641 501.428 796.535 494.403L809.07 481.629L852.035 524.528C875.666 548.122 895 567.774 895 568.199ZM843.555 696.25L828.922 710.864L766.498 648.724L704.074 586.585L718.787 571.871L733.5 557.156L795.845 619.397L858.189 681.637L843.555 696.25ZM722.742 617.2C736.084 630.534 747 641.927 747 642.518C747 643.11 709.425 680.871 663.5 726.431C617.575 771.992 580 809.778 580 810.401C580 811.024 582.254 813.753 585.008 816.466L590.016 821.398L598.583 812.928C603.295 808.27 620.122 791.551 635.976 775.776C651.83 760.001 665.109 747.401 665.484 747.776C665.86 748.151 666.017 747.963 665.833 747.359C665.528 746.353 757.651 653.958 758.959 653.958C759.272 653.958 765.259 659.701 772.262 666.72L784.995 679.481L681.229 783.22C624.157 840.276 576.876 886.958 576.16 886.958C575.444 886.958 566.38 878.521 556.019 868.208L537.181 849.458L538.026 843.458C538.49 840.158 539.337 833.408 539.907 828.458C540.478 823.508 541.683 813.158 542.586 805.458L544.228 791.458L581.493 753.958C601.988 733.333 635.442 699.583 655.835 678.958L692.912 641.458L681.987 630.495L671.063 619.532L684.281 606.309C691.552 599.037 697.722 593.058 697.992 593.022C698.263 592.987 709.401 603.867 722.742 617.2ZM932.75 756.066C970.288 793.43 1001 824.334 1001 824.742C1001 825.15 994.587 831.877 986.75 839.691L972.5 853.898L903.344 785.08L834.188 716.262L848.8 701.65C856.837 693.613 863.657 687.283 863.956 687.584C864.255 687.885 895.212 718.701 932.75 756.066ZM775.529 765.052L727.879 812.458L728.426 819.458C728.727 823.308 729.224 841.083 729.531 858.958C729.838 876.833 730.509 903.158 731.022 917.458C731.535 931.758 731.965 949.107 731.977 956.011L732 968.563L783 1019.35C811.05 1047.28 834 1070.44 834 1070.81C834 1071.18 827.477 1078 819.505 1085.95L805.009 1100.42L796.755 1092.23C729.336 1025.28 715.537 1011.4 715.75 1010.74C715.888 1010.31 715.663 1010.05 715.25 1010.17C714.838 1010.29 710.748 1006.75 706.162 1002.3L697.825 994.203L696.986 982.831C696.524 976.576 695.636 961.783 695.013 949.958C694.389 938.133 693.458 922.363 692.945 914.913C692.432 907.463 691.567 892.613 691.022 881.913C690.478 871.213 689.741 860.044 689.386 857.093L688.741 851.727L651.384 889.074L614.027 926.421L604.263 916.448C598.894 910.962 594.613 906.133 594.75 905.716C594.888 905.299 594.663 905.06 594.25 905.186C593.838 905.311 591.576 903.62 589.224 901.428L584.948 897.443L689.582 793.063L794.216 688.682L808.698 703.165L823.18 717.647L775.529 765.052ZM1025.98 730.417C1018.57 737.838 1012.24 743.92 1011.92 743.933C1011.6 743.947 1005.81 738.507 999.049 731.844L986.755 719.73L1000.62 705.84L1014.48 691.949L1026.97 704.437L1039.46 716.925L1025.98 730.417ZM1064.76 742.222L1077 754.486L1063.24 768.223L1049.47 781.96L1037 769.458L1024.53 756.957L1038 743.457C1045.41 736.033 1051.71 729.958 1052 729.958C1052.29 729.958 1058.04 735.477 1064.76 742.222ZM841.764 743.222L853.999 755.486L840.039 769.42L826.078 783.353L813.526 770.943L800.973 758.534L814.736 744.75C822.306 737.168 828.732 730.964 829.015 730.962C829.298 730.96 835.036 736.477 841.764 743.222ZM805.579 803.879L791.676 817.809L779.235 805.249L766.794 792.69L780.638 778.82L794.482 764.949L806.982 777.449L819.482 789.949L805.579 803.879ZM1091.13 768.65C1092.3 770.091 1092.29 770.216 1091.09 769.495C1090.13 768.917 1089.92 769.019 1090.41 769.82C1090.81 770.464 1091.48 770.782 1091.89 770.527C1092.3 770.272 1097.52 774.956 1103.48 780.937L1114.32 791.811L1100.62 805.577L1086.91 819.343L1074.46 806.914L1062 794.486L1075.74 780.722C1083.29 773.152 1089.54 766.958 1089.61 766.958C1089.69 766.958 1090.37 767.719 1091.13 768.65ZM1027.36 849.929L1041.23 863.9L1038.86 866.681C1035.74 870.357 846.065 1059.38 845.172 1059.71C844.792 1059.85 837.96 1053.41 829.99 1045.4L815.5 1030.83L913.5 933.426C967.4 879.855 1011.95 836.01 1012.5 835.991C1013.05 835.973 1019.74 842.245 1027.36 849.929ZM782.458 873.916L794.385 885.875L792.443 888.152C791.374 889.405 785.261 895.647 778.857 902.023L767.214 913.616L754.797 901.343L742.38 889.069L755.936 875.513C763.391 868.058 769.725 861.958 770.011 861.958C770.297 861.958 775.898 867.339 782.458 873.916ZM819.891 911.348L832.251 923.739L818.559 937.527L804.866 951.314L792.298 938.747L779.731 926.179L793.115 912.666C800.477 905.234 806.732 899.109 807.015 899.056C807.298 899.002 813.092 904.534 819.891 911.348ZM782.806 948.332L795.112 960.693L781.613 974.326C774.189 981.823 767.744 987.958 767.291 987.958C766.839 987.958 761.13 982.605 754.604 976.063C743.691 965.121 742.851 964.014 744.12 962.249C745.819 959.887 769.307 936.079 770 936.015C770.275 935.99 776.038 941.533 782.806 948.332Z" fill="#14416B"/>
</svg>
